<?xml version="1.0" encoding="utf-8"?>
<!-- Generator: Adobe Illustrator 27.1.1, SVG Export Plug-In . SVG Version: 6.00 Build 0)  -->
<svg version="1.1" id="Layer_1" xmlns:sketch="http://www.bohemiancoding.com/sketch/ns"
	 xmlns="http://www.w3.org/2000/svg" xmlns:xlink="http://www.w3.org/1999/xlink" x="0px" y="0px" viewBox="0 0 23 23"
	 style="enable-background:new 0 0 23 23;" xml:space="preserve">
<style type="text/css">
	.st0{fill-rule:evenodd;clip-rule:evenodd;fill:#4285F4;}
	.st1{fill-rule:evenodd;clip-rule:evenodd;fill:#34A853;}
	.st2{fill-rule:evenodd;clip-rule:evenodd;fill:#FBBC05;}
	.st3{fill-rule:evenodd;clip-rule:evenodd;fill:#EA4335;}
	.st4{fill:none;}
</style>
<g id="_x39_-PATCH" transform="translate(-608.000000, -160.000000)" sketch:type="MSArtboardGroup">
</g>
<g id="logo_googleg_48dp" transform="translate(15.000000, 15.000000)" sketch:type="MSLayerGroup">
	<path id="Shape" sketch:type="MSShapeGroup" class="st0" d="M5.1-3.3c0-0.6-0.1-1.3-0.2-1.8h-8.5v3.5h4.8C1.1-0.5,0.5,0.4-0.5,1.1
		v2.3h2.9C4.2,1.8,5.1-0.6,5.1-3.3L5.1-3.3z"/>
	<path id="Shape_00000067211687569885384420000007829389773776786097_" sketch:type="MSShapeGroup" class="st1" d="M-3.5,5.5
		c2.4,0,4.5-0.8,6-2.2l-2.9-2.3c-0.8,0.5-1.8,0.9-3,0.9c-2.3,0-4.3-1.6-5-3.7h-3v2.3C-10.1,3.5-7,5.5-3.5,5.5L-3.5,5.5z"/>
	<path id="Shape_00000066516585515813040410000009158682767950894238_" sketch:type="MSShapeGroup" class="st2" d="M-8.5-1.8
		c-0.2-0.5-0.3-1.1-0.3-1.7s0.1-1.2,0.3-1.7v-2.3h-3c-0.6,1.2-1,2.6-1,4s0.3,2.8,1,4L-8.5-1.8L-8.5-1.8z"/>
	<path id="Shape_00000150063541197578783040000010588970594884021692_" sketch:type="MSShapeGroup" class="st3" d="M-3.5-8.9
		c1.3,0,2.5,0.5,3.4,1.3l2.6-2.6c-1.6-1.5-3.6-2.3-6-2.3c-3.5,0-6.6,2-8,5l3,2.3C-7.8-7.3-5.8-8.9-3.5-8.9L-3.5-8.9z"/>
	<path id="Shape_00000094590334392450368970000004738043408495012500_" sketch:type="MSShapeGroup" class="st4" d="M-12.5-12.5h18
		v18h-18V-12.5z"/>
</g>
<g id="handles_square" sketch:type="MSLayerGroup">
</g>
</svg>
