<?xml version="1.0" encoding="utf-8"?>
<!-- Generator: Adobe Illustrator 27.4.1, SVG Export Plug-In . SVG Version: 6.00 Build 0)  -->
<svg version="1.1" id="Layer_1" xmlns="http://www.w3.org/2000/svg" xmlns:xlink="http://www.w3.org/1999/xlink" x="0px" y="0px"
	 viewBox="0 0 512 512" style="enable-background:new 0 0 512 512;" xml:space="preserve">
<style type="text/css">
	.st0{fill:#EF4444;}
</style>
<path class="st0" d="M140.6,21.2c13.5-13.5,31.8-21.1,50.9-21.1h129c19.1,0,37.4,7.6,50.9,21.1l119.4,119.4
	c13.5,13.5,21.1,31.8,21.1,50.9v129c0,19.1-7.6,37.4-21.1,50.9L371.4,490.8c-13.5,13.5-31.8,21.1-50.9,21.1h-129
	c-19.1,0-37.4-7.6-50.9-21.1L21.2,371.4C7.7,357.9,0.1,339.6,0.1,320.5v-129c0-19.1,7.6-37.4,21.1-50.9L140.6,21.2z M256,128
	c-13.3,0-24,10.7-24,24v112c0,13.3,10.7,24,24,24c13.3,0,24-10.7,24-24V152C280,138.7,269.3,128,256,128z M288,352
	c0-17.7-14.3-32-32-32s-32,14.3-32,32s14.3,32,32,32S288,369.7,288,352z"/>
</svg>
