<?xml version="1.0" encoding="utf-8"?>
<!-- Generator: Adobe Illustrator 26.4.1, SVG Export Plug-In . SVG Version: 6.00 Build 0)  -->
<svg version="1.1" id="Layer_1" xmlns="http://www.w3.org/2000/svg" xmlns:xlink="http://www.w3.org/1999/xlink" x="0px" y="0px"
	 viewBox="0 0 745.1 348.6" style="enable-background:new 0 0 745.1 348.6;" xml:space="preserve">
<style type="text/css">
	.st0{fill:#E66426;}
</style>
<g>
	<path d="M32.3,15.4c-1.5-1.2-3.1-2.2-4.6-2.8c-1.5-0.6-3-0.9-4.5-0.9c-1.8,0-3.3,0.4-4.5,1.3c-1.2,0.9-1.7,2-1.7,3.4
		c0,1,0.3,1.8,0.9,2.4c0.6,0.6,1.3,1.2,2.3,1.6c0.9,0.5,2,0.9,3.2,1.2c1.2,0.3,2.3,0.7,3.5,1.1c4.6,1.5,8,3.6,10.1,6.2
		c2.1,2.6,3.2,5.9,3.2,10c0,2.8-0.5,5.3-1.4,7.6c-0.9,2.3-2.3,4.2-4.1,5.8c-1.8,1.6-4,2.9-6.6,3.7c-2.6,0.9-5.6,1.3-8.9,1.3
		c-6.9,0-13.2-2-19.1-6.1l6-11.4c2.1,1.9,4.2,3.3,6.3,4.2c2.1,0.9,4.1,1.4,6.1,1.4c2.3,0,4-0.5,5.1-1.6c1.1-1.1,1.7-2.3,1.7-3.6
		c0-0.8-0.1-1.5-0.4-2.1c-0.3-0.6-0.8-1.2-1.4-1.7c-0.7-0.5-1.5-1-2.6-1.4c-1.1-0.4-2.4-0.9-3.9-1.4c-1.8-0.6-3.6-1.2-5.4-1.9
		c-1.8-0.7-3.3-1.6-4.7-2.8c-1.4-1.2-2.5-2.6-3.3-4.4c-0.8-1.8-1.3-4-1.3-6.7c0-2.7,0.4-5.1,1.3-7.3c0.9-2.2,2.1-4.1,3.7-5.6
		c1.6-1.6,3.6-2.8,5.9-3.6C15.5,0.4,18.1,0,21,0c2.7,0,5.5,0.4,8.4,1.1c2.9,0.7,5.7,1.8,8.4,3.3L32.3,15.4z"/>
	<path d="M124.1,19.7c-3.3-4-7.3-6-12.1-6c-2.1,0-4.1,0.4-5.9,1.2c-1.8,0.8-3.3,1.8-4.6,3.1c-1.3,1.3-2.3,2.9-3.1,4.7
		c-0.7,1.8-1.1,3.8-1.1,5.9c0,2.2,0.4,4.2,1.1,6c0.7,1.8,1.8,3.4,3.1,4.8c1.3,1.3,2.9,2.4,4.6,3.2c1.8,0.8,3.7,1.2,5.8,1.2
		c4.5,0,8.6-1.9,12.2-5.8v16.7l-1.4,0.5c-2.2,0.8-4.2,1.3-6,1.7s-3.7,0.5-5.5,0.5c-3.7,0-7.3-0.7-10.8-2.1c-3.4-1.4-6.5-3.4-9.1-6
		c-2.6-2.6-4.7-5.6-6.3-9.1c-1.6-3.5-2.4-7.4-2.4-11.6s0.8-8,2.3-11.5c1.6-3.5,3.6-6.5,6.3-9c2.6-2.5,5.7-4.5,9.1-5.9
		S107.3,0,111.1,0c2.2,0,4.3,0.2,6.4,0.7c2.1,0.5,4.3,1.2,6.6,2.1V19.7z"/>
	<path d="M167.3,28.7c0-4,0.7-7.8,2.2-11.3c1.5-3.5,3.6-6.5,6.2-9.1c2.6-2.6,5.8-4.6,9.5-6.1c3.7-1.5,7.7-2.2,12.1-2.2
		c4.4,0,8.4,0.7,12.1,2.2c3.7,1.5,6.9,3.5,9.5,6.1s4.7,5.6,6.2,9.1c1.5,3.5,2.2,7.2,2.2,11.3c0,4-0.7,7.8-2.2,11.3
		c-1.5,3.5-3.6,6.5-6.2,9.1c-2.7,2.6-5.8,4.6-9.5,6.1c-3.7,1.5-7.7,2.2-12.1,2.2c-4.4,0-8.5-0.7-12.1-2.2c-3.7-1.5-6.8-3.5-9.5-6.1
		c-2.6-2.6-4.7-5.6-6.2-9.1C168.1,36.4,167.3,32.7,167.3,28.7z M182.1,28.7c0,2.2,0.4,4.2,1.2,6c0.8,1.8,1.9,3.4,3.3,4.8
		c1.4,1.3,3,2.4,4.9,3.1c1.8,0.7,3.8,1.1,5.9,1.1c2.1,0,4-0.4,5.9-1.1c1.8-0.7,3.5-1.8,4.9-3.1c1.4-1.3,2.5-2.9,3.3-4.8
		c0.8-1.8,1.2-3.8,1.2-6s-0.4-4.2-1.2-6c-0.8-1.8-1.9-3.4-3.3-4.8c-1.4-1.3-3-2.4-4.9-3.1c-1.8-0.7-3.8-1.1-5.9-1.1
		c-2.1,0-4,0.4-5.9,1.1c-1.8,0.7-3.5,1.8-4.9,3.1c-1.4,1.3-2.5,2.9-3.3,4.8C182.5,24.5,182.1,26.5,182.1,28.7z"/>
	<path d="M282.2,1.5V31c0,1.6,0.1,3.2,0.2,4.9c0.1,1.7,0.5,3.2,1.1,4.5c0.6,1.3,1.5,2.4,2.8,3.3c1.3,0.8,3.1,1.3,5.5,1.3
		c2.4,0,4.2-0.4,5.4-1.3c1.3-0.8,2.2-1.9,2.8-3.3c0.6-1.3,1-2.8,1.1-4.5c0.1-1.7,0.2-3.3,0.2-4.9V1.5h14V33c0,8.4-1.9,14.6-5.8,18.5
		c-3.9,3.9-9.8,5.8-17.8,5.8c-8,0-14-1.9-17.9-5.8s-5.8-10.1-5.8-18.5V1.5H282.2z"/>
	<path d="M383.3,13.5v42.3h-14.1V13.5h-11.6v-12h37.3v12H383.3z"/>
	<path d="M454.2,55.8h-14.1V1.5h22.5c6.1,0,10.8,1.6,14,4.8s4.9,7.6,4.9,13.4c0,5.8-1.6,10.2-4.9,13.4s-7.9,4.8-14,4.8h-8.4V55.8z
		 M454.2,26.4h4.7c5.2,0,7.8-2.3,7.8-6.8c0-4.5-2.6-6.8-7.8-6.8h-4.7V26.4z"/>
	<path d="M539,1.5v42.3h16.9v12h-31V1.5H539z"/>
	<path d="M634.7,46.4h-20.2l-3.2,9.4h-15l20.7-54.3h15.4L653,55.8h-15L634.7,46.4z M630.9,35.6l-6.3-18.1l-6.3,18.1H630.9z"/>
	<path class="st0" d="M690.8,55.8V1.5h14.1L731,34.7V1.5h14v54.3h-14l-26.1-33.2v33.2H690.8z"/>
</g>
<path class="st0" d="M717.6,80l-21.9,134.3l21.9,134.3l21.9-134.3L717.6,80z M717.6,227.6c-7.3,0-13.3-5.9-13.3-13.3
	c0-7.3,5.9-13.3,13.3-13.3s13.3,5.9,13.3,13.3C730.9,221.6,725,227.6,717.6,227.6z"/>
</svg>
