<?xml version="1.0" encoding="utf-8"?>
<!-- Generator: Adobe Illustrator 27.7.0, SVG Export Plug-In . SVG Version: 6.00 Build 0)  -->
<svg version="1.1" id="Layer_1" xmlns="http://www.w3.org/2000/svg" xmlns:xlink="http://www.w3.org/1999/xlink" x="0px" y="0px"
	 viewBox="0 0 745.1 348.6" style="enable-background:new 0 0 745.1 348.6;" xml:space="preserve">
<style type="text/css">
	.st0{fill:#FFFFFF;}
	.st1{fill:#E66425;}
</style>
<path class="st0" d="M32.7,15.6c-1.5-1.2-3.1-2.2-4.6-2.8s-3-0.9-4.5-0.9c-1.8,0-3.3,0.4-4.5,1.3c-1.2,0.9-1.7,2-1.7,3.4
	c0,1,0.3,1.8,0.9,2.4s1.3,1.2,2.3,1.6c0.9,0.5,2,0.9,3.2,1.2c1.2,0.3,2.3,0.7,3.5,1.1c4.6,1.5,8,3.6,10.1,6.2
	c2.1,2.6,3.2,5.9,3.2,10c0,2.8-0.5,5.3-1.4,7.6s-2.3,4.2-4.1,5.8s-4,2.9-6.6,3.7c-2.6,0.9-5.6,1.3-8.9,1.3c-6.9,0-13.2-2-19.1-6.1
	l6-11.4c2.1,1.9,4.2,3.3,6.3,4.2s4.1,1.4,6.1,1.4c2.3,0,4-0.5,5.1-1.6s1.7-2.3,1.7-3.6c0-0.8-0.1-1.5-0.4-2.1s-0.8-1.2-1.4-1.7
	c-0.7-0.5-1.5-1-2.6-1.4s-2.4-0.9-3.9-1.4c-1.8-0.6-3.6-1.2-5.4-1.9c-1.8-0.7-3.3-1.6-4.7-2.8c-1.4-1.2-2.5-2.6-3.3-4.4
	s-1.3-4-1.3-6.7s0.4-5.1,1.3-7.3s2.1-4.1,3.7-5.6c1.6-1.6,3.6-2.8,5.9-3.6c2.3-0.9,4.9-1.3,7.8-1.3c2.7,0,5.5,0.4,8.4,1.1
	s5.7,1.8,8.4,3.3L32.7,15.6z"/>
<path class="st0" d="M124.5,19.9c-3.3-4-7.3-6-12.1-6c-2.1,0-4.1,0.4-5.9,1.2s-3.3,1.8-4.6,3.1c-1.3,1.3-2.3,2.9-3.1,4.7
	c-0.7,1.8-1.1,3.8-1.1,5.9c0,2.2,0.4,4.2,1.1,6s1.8,3.4,3.1,4.8c1.3,1.3,2.9,2.4,4.6,3.2c1.8,0.8,3.7,1.2,5.8,1.2
	c4.5,0,8.6-1.9,12.2-5.8v16.7l-1.4,0.5c-2.2,0.8-4.2,1.3-6,1.7s-3.7,0.5-5.5,0.5c-3.7,0-7.3-0.7-10.8-2.1c-3.4-1.4-6.5-3.4-9.1-6
	s-4.7-5.6-6.3-9.1C83.8,36.9,83,33,83,28.8s0.8-8,2.3-11.5c1.6-3.5,3.6-6.5,6.3-9c2.6-2.5,5.7-4.5,9.1-5.9s7.1-2.1,10.9-2.1
	c2.2,0,4.3,0.2,6.4,0.7s4.3,1.2,6.6,2.1L124.5,19.9L124.5,19.9z"/>
<path class="st0" d="M167.8,28.9c0-4,0.7-7.8,2.2-11.3s3.6-6.5,6.2-9.1c2.6-2.6,5.8-4.6,9.5-6.1s7.7-2.2,12.1-2.2
	c4.4,0,8.4,0.7,12.1,2.2c3.7,1.5,6.9,3.5,9.5,6.1s4.7,5.6,6.2,9.1s2.2,7.2,2.2,11.3c0,4-0.7,7.8-2.2,11.3s-3.6,6.5-6.2,9.1
	c-2.7,2.6-5.8,4.6-9.5,6.1s-7.7,2.2-12.1,2.2c-4.4,0-8.5-0.7-12.1-2.2c-3.7-1.5-6.8-3.5-9.5-6.1c-2.6-2.6-4.7-5.6-6.2-9.1
	C168.5,36.7,167.8,32.9,167.8,28.9z M182.6,28.9c0,2.2,0.4,4.2,1.2,6c0.8,1.8,1.9,3.4,3.3,4.8c1.4,1.3,3,2.4,4.9,3.1
	c1.8,0.7,3.8,1.1,5.9,1.1c2.1,0,4-0.4,5.9-1.1c1.8-0.7,3.5-1.8,4.9-3.1s2.5-2.9,3.3-4.8c0.8-1.8,1.2-3.8,1.2-6s-0.4-4.2-1.2-6
	s-1.9-3.4-3.3-4.8c-1.4-1.3-3-2.4-4.9-3.1c-1.8-0.7-3.8-1.1-5.9-1.1c-2.1,0-4,0.4-5.9,1.1c-1.8,0.7-3.5,1.8-4.9,3.1
	c-1.4,1.3-2.5,2.9-3.3,4.8C183,24.7,182.6,26.7,182.6,28.9z"/>
<path class="st0" d="M282.6,1.7v29.5c0,1.6,0.1,3.2,0.2,4.9s0.5,3.2,1.1,4.5s1.5,2.4,2.8,3.3c1.3,0.8,3.1,1.3,5.5,1.3
	s4.2-0.4,5.4-1.3c1.3-0.8,2.2-1.9,2.8-3.3c0.6-1.3,1-2.8,1.1-4.5s0.2-3.3,0.2-4.9V1.7h14v31.5c0,8.4-1.9,14.6-5.8,18.5
	s-9.8,5.8-17.8,5.8s-14-1.9-17.9-5.8s-5.8-10.1-5.8-18.5V1.7H282.6z"/>
<path class="st0" d="M383.8,13.7V56h-14.1V13.7h-11.6v-12h37.3v12H383.8z"/>
<path class="st0" d="M454.6,56h-14.1V1.7H463c6.1,0,10.8,1.6,14,4.8s4.9,7.6,4.9,13.4s-1.6,10.2-4.9,13.4s-7.9,4.8-14,4.8h-8.4V56z
	 M454.6,26.6h4.7c5.2,0,7.8-2.3,7.8-6.8s-2.6-6.8-7.8-6.8h-4.7V26.6z"/>
<path class="st0" d="M539.5,1.7V44h16.9v12h-31V1.7H539.5z"/>
<path class="st0" d="M635.1,46.6H615l-3.2,9.4h-15l20.7-54.3h15.4L653.4,56h-15L635.1,46.6z M631.4,35.8l-6.3-18.1l-6.3,18.1H631.4z
	"/>
<path class="st1" d="M691.3,56V1.7h14.1l26.1,33.2V1.7h14V56h-14l-26.1-33.2V56H691.3z"/>
<path class="st1" d="M718.1,80.2l-21.9,134.3l21.9,134.3L740,214.5L718.1,80.2z M718.1,227.8c-7.3,0-13.3-6-13.3-13.3
	c0-7.3,6-13.3,13.3-13.3s13.3,6,13.3,13.3C731.4,221.8,725.4,227.8,718.1,227.8z"/>
</svg>
